{
  "accessors": [
    {
      "bufferView": 2,
      "componentType": 5126,
      "count": 16753,
      "max": [
        14.629297256469727,
        15.138023376464844,
        7.085968971252441
      ],
      "min": [
        -14.279324531555176,
        -13.144524574279785,
        -8.216760635375977
      ],
      "type": "VEC3"
    },
    {
      "bufferView": 2,
      "byteOffset": 201036,
      "componentType": 5126,
      "count": 16753,
      "max": [
        0.9994688630104065,
        0.9999961853027344,
        0.9999967813491821
      ],
      "min": [
        -0.999908447265625,
        -0.9996373057365417,
        -0.9999955892562866
      ],
      "type": "VEC3"
    },
    {
      "bufferView": 3,
      "componentType": 5126,
      "count": 16753,
      "max": [
        1.0,
        0.9948420524597168,
        0.9999998211860657,
        1.0
      ],
      "min": [
        -0.9999999403953552,
        -0.9954070448875427,
        -0.9999986290931702,
        -1.0
      ],
      "type": "VEC4"
    },
    {
      "bufferView": 1,
      "componentType": 5126,
      "count": 16753,
      "max": [
        0.9997109770774841,
        0.9997559785842896
      ],
      "min": [
        0.00024399999529123306,
        0.00025599999935366213
      ],
      "type": "VEC2"
    },
    {
      "bufferView": 0,
      "componentType": 5125,
      "count": 60000,
      "type": "SCALAR"
    }
  ],
  "asset": {
    "extras": {
      "author": "Thomas Flynn (https://sketchfab.com/nebulousflynn)",
      "license": "CC-BY-4.0 (http://creativecommons.org/licenses/by/4.0/)",
      "source": "https://sketchfab.com/3d-models/macaron-marie-antoinette-2e847c5f8c83454ba7a5a562c9a32746",
      "title": "Macaron Marie-Antoinette"
    },
    "generator": "Sketchfab-13.90.0",
    "version": "2.0"
  },
  "bufferViews": [
    {
      "buffer": 0,
      "byteLength": 240000,
      "name": "floatBufferViews",
      "target": 34963
    },
    {
      "buffer": 0,
      "byteLength": 134024,
      "byteOffset": 240000,
      "byteStride": 8,
      "name": "floatBufferViews",
      "target": 34962
    },
    {
      "buffer": 0,
      "byteLength": 402072,
      "byteOffset": 374024,
      "byteStride": 12,
      "name": "floatBufferViews",
      "target": 34962
    },
    {
      "buffer": 0,
      "byteLength": 268048,
      "byteOffset": 776096,
      "byteStride": 16,
      "name": "floatBufferViews",
      "target": 34962
    }
  ],
  "buffers": [
    {
      "byteLength": 1044144,
      "uri": "scene.bin"
    }
  ],
  "images": [
    {
      "uri": "textures/laduree_macaron_20k_baseColor.jpeg"
    },
    {
      "uri": "textures/laduree_macaron_20k_metallicRoughness.png"
    },
    {
      "uri": "textures/laduree_macaron_20k_normal.png"
    }
  ],
  "materials": [
    {
      "doubleSided": true,
      "name": "laduree_macaron_20k",
      "normalTexture": {
        "index": 2
      },
      "occlusionTexture": {
        "index": 1
      },
      "pbrMetallicRoughness": {
        "baseColorTexture": {
          "index": 0
        },
        "metallicFactor": 0.1,
        "metallicRoughnessTexture": {
          "index": 1
        },
        "roughnessFactor": 0.5382843071521742
      }
    }
  ],
  "meshes": [
    {
      "name": "Object_0",
      "primitives": [
        {
          "attributes": {
            "NORMAL": 1,
            "POSITION": 0,
            "TANGENT": 2,
            "TEXCOORD_0": 3
          },
          "indices": 4,
          "material": 0,
          "mode": 4
        }
      ]
    }
  ],
  "nodes": [
    {
      "children": [
        1
      ],
      "matrix": [
        -0.0033298976035577577,
        4.229639138378158e-05,
        -0.00014527415587609754,
        0.0,
        -0.0001221959943359368,
        -0.002639125848142993,
        0.0020325339332650234,
        0.0,
        -8.922838511560543e-05,
        0.002035764505090076,
        0.0026379562063020283,
        0.0,
        0.0,
        0.0,
        0.0,
        1.0
      ],
      "name": "Sketchfab_model"
    },
    {
      "children": [
        2
      ],
      "name": "laduree_macaron_20k.obj.cleaner.materialmerger.gles"
    },
    {
      "mesh": 0,
      "name": "Object_2"
    }
  ],
  "samplers": [
    {
      "magFilter": 9729,
      "minFilter": 9987,
      "wrapS": 10497,
      "wrapT": 10497
    }
  ],
  "scene": 0,
  "scenes": [
    {
      "name": "Sketchfab_Scene",
      "nodes": [
        0
      ]
    }
  ],
  "textures": [
    {
      "sampler": 0,
      "source": 0
    },
    {
      "sampler": 0,
      "source": 1
    },
    {
      "sampler": 0,
      "source": 2
    }
  ]
}
